<mxfile host="65bd71144e">
    <diagram id="g8NQyCKhctxddYFtt-D-" name="Page-1">
        <mxGraphModel dx="1426" dy="433" grid="1" gridSize="10" guides="1" tooltips="1" connect="1" arrows="1" fold="1" page="1" pageScale="1" pageWidth="850" pageHeight="1100" background="none" math="0" shadow="0">
            <root>
                <mxCell id="0"/>
                <mxCell id="1" parent="0"/>
                <mxCell id="24" style="edgeStyle=none;html=1;" parent="1" edge="1">
                    <mxGeometry relative="1" as="geometry">
                        <mxPoint x="-770" y="160" as="targetPoint"/>
                        <mxPoint x="-810" y="160" as="sourcePoint"/>
                        <Array as="points">
                            <mxPoint x="-800" y="160"/>
                            <mxPoint x="-780" y="160"/>
                            <mxPoint x="-770" y="160"/>
                        </Array>
                    </mxGeometry>
                </mxCell>
                <mxCell id="12" value="Visiteur" style="shape=umlActor;verticalLabelPosition=bottom;verticalAlign=top;html=1;outlineConnect=0;strokeColor=#000099;" parent="1" vertex="1">
                    <mxGeometry x="-840" y="120" width="30" height="60" as="geometry"/>
                </mxCell>
                <mxCell id="13" value="client" style="shape=umlActor;verticalLabelPosition=bottom;verticalAlign=top;html=1;outlineConnect=0;strokeColor=#000099;" parent="1" vertex="1">
                    <mxGeometry x="-850" y="400" width="30" height="60" as="geometry"/>
                </mxCell>
                <mxCell id="26" style="edgeStyle=none;html=1;entryX=0;entryY=0.333;entryDx=0;entryDy=0;entryPerimeter=0;" parent="1" target="30" edge="1">
                    <mxGeometry relative="1" as="geometry">
                        <mxPoint x="-760" y="470" as="targetPoint"/>
                        <mxPoint x="-820" y="430" as="sourcePoint"/>
                        <Array as="points">
                            <mxPoint x="-770" y="470"/>
                        </Array>
                    </mxGeometry>
                </mxCell>
                <mxCell id="15" value="banque" style="shape=umlActor;verticalLabelPosition=bottom;verticalAlign=top;html=1;outlineConnect=0;strokeColor=#000099;" parent="1" vertex="1">
                    <mxGeometry x="-200" y="380" width="30" height="60" as="geometry"/>
                </mxCell>
                <mxCell id="23" value="Commande&amp;nbsp;&lt;br&gt;des produits" style="text;align=center;html=1;verticalAlign=middle;whiteSpace=wrap;rounded=0;" parent="1" vertex="1">
                    <mxGeometry x="-640" width="120" height="40" as="geometry"/>
                </mxCell>
                <mxCell id="27" value="Afficher et consulter des produits" style="ellipse;whiteSpace=wrap;html=1;strokeColor=#000099;" parent="1" vertex="1">
                    <mxGeometry x="-760" y="130" width="120" height="60" as="geometry"/>
                </mxCell>
                <mxCell id="55" value="" style="edgeStyle=none;html=1;" parent="1" edge="1">
                    <mxGeometry relative="1" as="geometry">
                        <mxPoint x="-770" y="380" as="sourcePoint"/>
                        <mxPoint x="-770" y="380" as="targetPoint"/>
                    </mxGeometry>
                </mxCell>
                <mxCell id="28" value="S'authentifier" style="ellipse;whiteSpace=wrap;html=1;strokeColor=#000099;" parent="1" vertex="1">
                    <mxGeometry x="-440" y="410" width="120" height="60" as="geometry"/>
                </mxCell>
                <mxCell id="30" value="valider les produits" style="ellipse;whiteSpace=wrap;html=1;strokeColor=#000099;" parent="1" vertex="1">
                    <mxGeometry x="-720" y="490" width="120" height="60" as="geometry"/>
                </mxCell>
                <mxCell id="35" value="include" style="rounded=0;whiteSpace=wrap;html=1;strokeColor=#000099;" parent="1" vertex="1">
                    <mxGeometry x="-730" y="450" width="40" height="20" as="geometry"/>
                </mxCell>
                <mxCell id="36" value="Ajouter au panier" style="ellipse;whiteSpace=wrap;html=1;strokeColor=#000099;" parent="1" vertex="1">
                    <mxGeometry x="-470" y="40" width="200" height="80" as="geometry"/>
                </mxCell>
                <mxCell id="37" value="Rechercher les produits" style="ellipse;whiteSpace=wrap;html=1;strokeColor=#000099;" parent="1" vertex="1">
                    <mxGeometry x="-480" y="260" width="200" height="80" as="geometry"/>
                </mxCell>
                <mxCell id="38" value="Consulter" style="ellipse;whiteSpace=wrap;html=1;strokeColor=#000099;" parent="1" vertex="1">
                    <mxGeometry x="-480" y="170" width="200" height="80" as="geometry"/>
                </mxCell>
                <mxCell id="39" value="confirmer les informations" style="ellipse;whiteSpace=wrap;html=1;strokeColor=#000099;" parent="1" vertex="1">
                    <mxGeometry x="-760" y="350" width="200" height="80" as="geometry"/>
                </mxCell>
                <mxCell id="40" value="payer" style="ellipse;whiteSpace=wrap;html=1;strokeColor=#000099;" parent="1" vertex="1">
                    <mxGeometry x="-720" y="600" width="200" height="80" as="geometry"/>
                </mxCell>
                <mxCell id="46" value="" style="endArrow=none;dashed=1;html=1;dashPattern=1 3;strokeWidth=2;" parent="1" source="27" edge="1">
                    <mxGeometry width="50" height="50" relative="1" as="geometry">
                        <mxPoint x="-630" y="80" as="sourcePoint"/>
                        <mxPoint x="-470" y="90" as="targetPoint"/>
                        <Array as="points"/>
                    </mxGeometry>
                </mxCell>
                <mxCell id="47" value="" style="endArrow=none;dashed=1;html=1;dashPattern=1 3;strokeWidth=2;exitX=1.033;exitY=0.656;exitDx=0;exitDy=0;exitPerimeter=0;" parent="1" source="27" edge="1">
                    <mxGeometry width="50" height="50" relative="1" as="geometry">
                        <mxPoint x="-640" y="140" as="sourcePoint"/>
                        <mxPoint x="-480" y="200" as="targetPoint"/>
                    </mxGeometry>
                </mxCell>
                <mxCell id="48" value="" style="endArrow=none;dashed=1;html=1;dashPattern=1 3;strokeWidth=2;" parent="1" source="27" edge="1">
                    <mxGeometry width="50" height="50" relative="1" as="geometry">
                        <mxPoint x="-630" y="215" as="sourcePoint"/>
                        <mxPoint x="-480" y="280" as="targetPoint"/>
                    </mxGeometry>
                </mxCell>
                <mxCell id="56" style="edgeStyle=none;html=1;" parent="1" source="13" edge="1">
                    <mxGeometry relative="1" as="geometry">
                        <mxPoint x="-770" y="390" as="targetPoint"/>
                        <mxPoint x="-800" y="540" as="sourcePoint"/>
                        <Array as="points"/>
                    </mxGeometry>
                </mxCell>
                <mxCell id="59" value="" style="endArrow=classic;html=1;" parent="1" edge="1">
                    <mxGeometry width="50" height="50" relative="1" as="geometry">
                        <mxPoint x="-490" y="200" as="sourcePoint"/>
                        <mxPoint x="-480" y="200" as="targetPoint"/>
                    </mxGeometry>
                </mxCell>
                <mxCell id="60" value="" style="endArrow=classic;html=1;" parent="1" edge="1">
                    <mxGeometry width="50" height="50" relative="1" as="geometry">
                        <mxPoint x="-490" y="200" as="sourcePoint"/>
                        <mxPoint x="-490" y="200" as="targetPoint"/>
                        <Array as="points">
                            <mxPoint x="-490" y="200"/>
                        </Array>
                    </mxGeometry>
                </mxCell>
                <mxCell id="61" value="" style="endArrow=classic;html=1;" parent="1" edge="1">
                    <mxGeometry width="50" height="50" relative="1" as="geometry">
                        <mxPoint x="-490" y="120" as="sourcePoint"/>
                        <mxPoint x="-490" y="120" as="targetPoint"/>
                        <Array as="points">
                            <mxPoint x="-490" y="120"/>
                        </Array>
                    </mxGeometry>
                </mxCell>
                <mxCell id="62" value="" style="endArrow=classic;html=1;" parent="1" edge="1">
                    <mxGeometry width="50" height="50" relative="1" as="geometry">
                        <mxPoint x="-470" y="90" as="sourcePoint"/>
                        <mxPoint x="-460" y="90" as="targetPoint"/>
                    </mxGeometry>
                </mxCell>
                <mxCell id="63" value="" style="endArrow=classic;html=1;" parent="1" edge="1">
                    <mxGeometry width="50" height="50" relative="1" as="geometry">
                        <mxPoint x="-480" y="280" as="sourcePoint"/>
                        <mxPoint x="-470" y="280" as="targetPoint"/>
                    </mxGeometry>
                </mxCell>
                <mxCell id="64" value="" style="endArrow=classic;html=1;" parent="1" edge="1">
                    <mxGeometry width="50" height="50" relative="1" as="geometry">
                        <mxPoint x="-490" y="400" as="sourcePoint"/>
                        <mxPoint x="-490" y="400" as="targetPoint"/>
                    </mxGeometry>
                </mxCell>
                <mxCell id="67" value="admin" style="shape=umlActor;verticalLabelPosition=bottom;verticalAlign=top;html=1;outlineConnect=0;strokeColor=#000099;" parent="1" vertex="1">
                    <mxGeometry x="-830" y="745" width="30" height="60" as="geometry"/>
                </mxCell>
                <mxCell id="107" value="" style="endArrow=classic;html=1;exitX=0.328;exitY=-0.039;exitDx=0;exitDy=0;exitPerimeter=0;dashed=1;" parent="1" edge="1" source="30">
                    <mxGeometry width="50" height="50" relative="1" as="geometry">
                        <mxPoint x="-680.5" y="440" as="sourcePoint"/>
                        <mxPoint x="-680.5" y="430" as="targetPoint"/>
                    </mxGeometry>
                </mxCell>
                <mxCell id="110" value="gestion et mise à jour du stock" style="ellipse;whiteSpace=wrap;html=1;strokeColor=#000099;" parent="1" vertex="1">
                    <mxGeometry x="-740" y="730" width="160" height="90" as="geometry"/>
                </mxCell>
                <mxCell id="111" value="" style="endArrow=classic;html=1;entryX=0;entryY=0.5;entryDx=0;entryDy=0;" parent="1" source="67" edge="1" target="110">
                    <mxGeometry width="50" height="50" relative="1" as="geometry">
                        <mxPoint x="-480" y="710" as="sourcePoint"/>
                        <mxPoint x="-770" y="670" as="targetPoint"/>
                    </mxGeometry>
                </mxCell>
                <mxCell id="114" value="" style="endArrow=classic;html=1;" parent="1" target="15" edge="1">
                    <mxGeometry width="50" height="50" relative="1" as="geometry">
                        <mxPoint x="-270" y="410" as="sourcePoint"/>
                        <mxPoint x="-200" y="370" as="targetPoint"/>
                    </mxGeometry>
                </mxCell>
                <mxCell id="115" value="extend" style="text;strokeColor=none;align=center;fillColor=none;html=1;verticalAlign=middle;whiteSpace=wrap;rounded=0;" parent="1" vertex="1">
                    <mxGeometry x="-550" y="80" width="60" height="30" as="geometry"/>
                </mxCell>
                <mxCell id="118" value="" style="endArrow=none;dashed=1;html=1;dashPattern=1 3;strokeWidth=2;exitX=0.5;exitY=0;exitDx=0;exitDy=0;" parent="1" source="38" edge="1">
                    <mxGeometry width="50" height="50" relative="1" as="geometry">
                        <mxPoint x="-380" y="160" as="sourcePoint"/>
                        <mxPoint x="-380" y="130" as="targetPoint"/>
                    </mxGeometry>
                </mxCell>
                <mxCell id="119" value="" style="endArrow=classic;html=1;" parent="1" edge="1">
                    <mxGeometry width="50" height="50" relative="1" as="geometry">
                        <mxPoint x="-380" y="130" as="sourcePoint"/>
                        <mxPoint x="-380" y="120" as="targetPoint"/>
                        <Array as="points">
                            <mxPoint x="-380" y="120"/>
                        </Array>
                    </mxGeometry>
                </mxCell>
                <mxCell id="120" value="extend" style="text;html=1;align=center;verticalAlign=middle;resizable=0;points=[];autosize=1;strokeColor=none;fillColor=none;" parent="1" vertex="1">
                    <mxGeometry x="-390" y="135" width="60" height="30" as="geometry"/>
                </mxCell>
                <mxCell id="123" value="extend" style="text;html=1;align=center;verticalAlign=middle;resizable=0;points=[];autosize=1;strokeColor=none;fillColor=none;" parent="1" vertex="1">
                    <mxGeometry x="-550" y="165" width="60" height="30" as="geometry"/>
                </mxCell>
                <mxCell id="124" value="extend" style="text;html=1;align=center;verticalAlign=middle;resizable=0;points=[];autosize=1;strokeColor=none;fillColor=none;" parent="1" vertex="1">
                    <mxGeometry x="-550" y="220" width="60" height="30" as="geometry"/>
                </mxCell>
                <mxCell id="137" value="" style="edgeStyle=none;html=1;dashed=1;" edge="1" parent="1" source="28" target="40">
                    <mxGeometry relative="1" as="geometry"/>
                </mxCell>
                <mxCell id="139" value="" style="edgeStyle=none;html=1;dashed=1;entryX=1;entryY=0.333;entryDx=0;entryDy=0;entryPerimeter=0;" edge="1" parent="1" source="28" target="30">
                    <mxGeometry relative="1" as="geometry">
                        <mxPoint x="-560" y="490" as="targetPoint"/>
                    </mxGeometry>
                </mxCell>
                <mxCell id="125" value="include" style="rounded=0;whiteSpace=wrap;html=1;strokeColor=#000099;" parent="1" vertex="1">
                    <mxGeometry x="-500" y="440" width="40" height="20" as="geometry"/>
                </mxCell>
                <mxCell id="131" value="" style="edgeStyle=none;html=1;dashed=1;" edge="1" parent="1" source="28" target="39">
                    <mxGeometry relative="1" as="geometry"/>
                </mxCell>
                <mxCell id="127" value="include" style="rounded=0;whiteSpace=wrap;html=1;strokeColor=#000099;" parent="1" vertex="1">
                    <mxGeometry x="-480" y="400" width="40" height="20" as="geometry"/>
                </mxCell>
                <mxCell id="135" style="edgeStyle=none;html=1;entryX=0.093;entryY=0.171;entryDx=0;entryDy=0;entryPerimeter=0;" edge="1" parent="1" target="40">
                    <mxGeometry relative="1" as="geometry">
                        <mxPoint x="-700" y="639.98" as="targetPoint"/>
                        <mxPoint x="-820" y="440" as="sourcePoint"/>
                        <Array as="points">
                            <mxPoint x="-720" y="590"/>
                        </Array>
                    </mxGeometry>
                </mxCell>
                <mxCell id="140" value="include" style="rounded=0;whiteSpace=wrap;html=1;strokeColor=#000099;" vertex="1" parent="1">
                    <mxGeometry x="-490" y="480" width="40" height="20" as="geometry"/>
                </mxCell>
                <mxCell id="144" value="" style="edgeStyle=none;html=1;dashed=1;entryX=0.988;entryY=0.278;entryDx=0;entryDy=0;entryPerimeter=0;exitX=0.433;exitY=1.028;exitDx=0;exitDy=0;exitPerimeter=0;" edge="1" parent="1" source="28" target="110">
                    <mxGeometry relative="1" as="geometry">
                        <mxPoint x="-398" y="710" as="targetPoint"/>
                    </mxGeometry>
                </mxCell>
                <mxCell id="142" value="include" style="rounded=0;whiteSpace=wrap;html=1;strokeColor=#000099;" vertex="1" parent="1">
                    <mxGeometry x="-410" y="500" width="40" height="20" as="geometry"/>
                </mxCell>
            </root>
        </mxGraphModel>
    </diagram>
</mxfile>